<?xml version="1.0" standalone="no"?>
<!DOCTYPE svg PUBLIC "-//W3C//DTD SVG 20010904//EN"
 "http://www.w3.org/TR/2001/REC-SVG-20010904/DTD/svg10.dtd">
<svg version="1.0" xmlns="http://www.w3.org/2000/svg"
 width="800.000000pt" height="800.000000pt" viewBox="0 0 800.000000 800.000000"
 preserveAspectRatio="xMidYMid meet">
<metadata>
Created by potrace 1.14, written by Peter Selinger 2001-2017
</metadata>
<g transform="translate(0.000000,800.000000) scale(0.100000,-0.100000)"
fill="#000000" stroke="none">
<path d="M0 4000 l0 -4000 4000 0 4000 0 0 4000 0 4000 -4000 0 -4000 0 0
-4000z m1658 1388 l-3 -173 -62 -7 c-68 -7 -107 -24 -139 -60 -49 -53 -49 -53
-55 -443 -5 -308 -9 -379 -22 -422 -39 -117 -129 -201 -267 -246 -41 -14 -68
-27 -60 -30 8 -3 45 -15 82 -27 122 -39 199 -107 240 -210 21 -52 22 -75 27
-435 6 -368 7 -381 28 -421 29 -55 78 -84 163 -97 l70 -11 0 -169 0 -170 -137
6 c-219 10 -354 54 -432 143 -86 98 -101 193 -101 656 0 306 -1 331 -21 382
-37 99 -133 156 -294 172 l-65 7 0 178 0 178 33 5 c17 3 55 7 82 11 114 12
196 60 238 138 21 41 22 54 28 452 7 425 10 456 53 547 65 136 255 212 544
217 l72 1 -2 -172z m1560 0 l-3 -173 -62 -7 c-34 -4 -75 -14 -91 -22 -40 -21
-79 -69 -92 -114 -6 -22 -10 -165 -10 -347 0 -331 -7 -410 -45 -491 -42 -94
-148 -174 -270 -205 -25 -6 -43 -15 -38 -18 4 -4 40 -17 79 -29 125 -39 204
-107 247 -215 20 -49 21 -77 27 -432 5 -368 6 -381 27 -421 29 -55 78 -84 163
-97 l70 -11 0 -169 0 -170 -137 6 c-219 10 -354 54 -432 143 -86 98 -101 193
-101 656 0 306 -1 331 -21 382 -37 99 -133 156 -294 172 l-65 7 0 178 0 178
33 5 c17 3 55 7 82 11 114 12 196 60 238 138 21 41 22 54 28 452 7 425 10 456
53 547 65 136 255 212 544 217 l72 1 -2 -172z m1777 162 c278 -32 400 -117
445 -310 9 -37 15 -184 19 -450 l6 -395 29 -52 c48 -87 132 -130 269 -140 l77
-6 0 -183 0 -184 -38 0 c-108 0 -221 -40 -277 -97 -61 -63 -65 -89 -65 -457 0
-467 -15 -562 -101 -660 -78 -89 -213 -133 -431 -143 l-138 -6 0 169 0 170 70
11 c85 13 139 46 166 100 17 35 20 71 25 403 6 381 8 399 54 491 40 79 135
148 245 180 65 18 67 25 13 38 -168 42 -274 146 -302 296 -7 34 -11 192 -11
384 0 197 -4 341 -11 364 -22 82 -107 137 -211 137 l-38 0 0 175 0 175 58 0
c31 0 98 -5 147 -10z m1647 -14 c40 -8 99 -24 130 -36 68 -25 157 -102 183
-157 44 -92 47 -123 54 -543 5 -372 8 -408 25 -444 46 -91 140 -144 279 -153
l77 -6 0 -183 0 -184 -38 0 c-108 0 -221 -40 -277 -97 -61 -63 -65 -89 -65
-457 0 -467 -15 -562 -101 -660 -78 -89 -213 -133 -431 -143 l-138 -6 0 169 0
170 70 11 c85 13 139 46 166 100 17 35 20 71 25 403 4 254 10 377 18 405 44
136 120 211 260 258 39 14 74 27 77 29 3 3 -17 11 -43 17 -168 42 -274 146
-302 296 -7 34 -11 192 -11 384 0 207 -4 341 -11 366 -22 79 -111 135 -213
135 l-36 0 0 177 0 176 114 -6 c63 -4 147 -13 188 -21z"/>
</g>
</svg>
